# xmcd CD database file
#
# Track frame offsets:
#	150
#	10060
#	16372
#	21557
#	57127
#	98732
#	116260
#	128807
#	138077
#	148075
#	169652
#	185945
#	216297
#
# Disc length: 3133 seconds
#
# Revision: 0
# Processed by: cddbd v1.4PL0 Copyright (c) Steve Scherf et al.
# Submitted via: CDex 1.50Beta5
#
DISCID=b40c3b0d
DTITLE=Wolfgang Muthspiel and Christian Muthspiel - CY (music on works of Cy Twombly)
DYEAR=1900
DGENRE=Jazz
TTITLE0=Tiznit
TTITLE1=Solon I
TTITLE2=Min-Oe
TTITLE3=Night Watch
TTITLE4=Gaeta Set II
TTITLE5=Winter's Passage Luxor
TTITLE6=Letter of Resignation XIV
TTITLE7=Letter of Resignation VII
TTITLE8=Letter of Resignation XIX
TTITLE9=Turn and Coda
TTITLE10=Rotalla
TTITLE11=Wilder Shores of Love
TTITLE12=Virgil
EXTD=
EXTT0=
EXTT1=
EXTT2=
EXTT3=
EXTT4=
EXTT5=
EXTT6=
EXTT7=
EXTT8=
EXTT9=
EXTT10=
EXTT11=
EXTT12=
PLAYORDER=
